<svg xmlns="http://www.w3.org/2000/svg"  viewBox="0 0 512 512" width="40px" height="40px"><g data-name="43 Quiz"><path fill="#a9defc" d="M412.23,11a40.5,40.5,0,0,0-37.72,25.77A149.45,149.45,0,0,0,290.61,11c-44.34,0-85.71,19.4-116.48,54.62-29.42,33.66-45.62,78.08-45.62,125.06,0,42.6,13.32,83.1,37.75,115.38H312.63a13.64,13.64,0,0,1,13.65,13.64V366a151,151,0,0,0,45.46-19.63v74.83a40.49,40.49,0,0,0,81,0V51.49A40.49,40.49,0,0,0,412.23,11ZM290.61,289.37c-44.73,0-81.12-44.28-81.12-98.69S245.88,92,290.61,92s81.13,44.28,81.13,98.7S335.35,289.37,290.61,289.37Z"/><rect width="277.69" height="30.81" x="59.28" y="470.19" fill="#a9defc" rx="15.4" ry="15.4"/><path fill="#a9defc" d="M293.1,327.39h-190a10.08,10.08,0,0,0-10.09,10.08V442.56a10.09,10.09,0,0,0,10.09,10.09h190a10.09,10.09,0,0,0,10.09-10.09V337.47A10.08,10.08,0,0,0,293.1,327.39ZM183,381,153.5,410.39a11.74,11.74,0,0,1-16.59,0l-14-14a8.65,8.65,0,1,1,12.25-12.23l7.37,7.37a3.87,3.87,0,0,0,5.47,0l22.78-22.76a8.65,8.65,0,0,1,12.24,0h0A8.64,8.64,0,0,1,183,381Zm90.15,16.61A9.51,9.51,0,0,1,259.67,411l-7.57-7.58L244.52,411a9.51,9.51,0,0,1-13.44-13.45l7.58-7.57-7.58-7.58A9.5,9.5,0,0,1,244.52,369l7.58,7.58,7.57-7.58a9.51,9.51,0,0,1,13.45,13.44L265.54,390Z"/><path fill="#1d71a0" d="M412.23,467.73a46.55,46.55,0,0,1-46.49-46.49V357a155.4,155.4,0,0,1-38,14.9,6,6,0,0,1-7.44-5.82V319.7a7.65,7.65,0,0,0-7.65-7.64H166.26a6,6,0,0,1-4.78-2.38c-25.13-33.2-39-75.47-39-119v-1a6,6,0,0,1,12,0v1c0,39.9,12.33,78.62,34.77,109.38H312.63a19.66,19.66,0,0,1,19.65,19.64v38.46a145.73,145.73,0,0,0,36.22-16.8,6,6,0,0,1,9.24,5.05v74.83a34.49,34.49,0,0,0,69,0V51.49A34.49,34.49,0,0,0,380.1,39a6,6,0,0,1-8.93,2.8A144.07,144.07,0,0,0,290.61,17c-42.58,0-82.34,18.67-112,52.56a179.09,179.09,0,0,0-38.53,74.72,6,6,0,1,1-11.65-2.87,191,191,0,0,1,41.15-79.74C201.54,25.12,244.52,5,290.61,5a155.64,155.64,0,0,1,81.45,23.07,46.5,46.5,0,0,1,86.66,23.42V421.24A46.54,46.54,0,0,1,412.23,467.73ZM290.61,295.37c-48,0-87.12-47-87.12-104.69S242.58,86,290.61,86s87.13,47,87.13,104.7S338.66,295.37,290.61,295.37Zm0-197.39c-41.42,0-75.12,41.58-75.12,92.7s33.7,92.69,75.12,92.69,75.13-41.58,75.13-92.69S332,98,290.61,98ZM129.5,176.75q-.3,0-.6,0a6,6,0,0,1-5.38-6.57c.3-3,.68-6.13,1.14-9.26a6,6,0,1,1,11.87,1.71c-.42,3-.78,5.9-1.07,8.74A6,6,0,0,1,129.5,176.75Z"/><path fill="#1d71a0" d="M326.28,476.59a5.78,5.78,0,0,1-1.43-.18,8.34,8.34,0,0,0-1.88-.22H73.26a8.25,8.25,0,0,0-1.87.22A6,6,0,0,1,64,470.59V319.69A19.66,19.66,0,0,1,83.6,300.05h229a19.66,19.66,0,0,1,19.65,19.64v150.9a6,6,0,0,1-6,6ZM76,464.19H320.28V319.69a7.65,7.65,0,0,0-7.65-7.64H83.6A7.65,7.65,0,0,0,76,319.69Z"/><path fill="#1d71a0" d="M293.1,458.65h-190a16.11,16.11,0,0,1-16.09-16.09V337.47a16.11,16.11,0,0,1,16.09-16.08h190a16.11,16.11,0,0,1,16.09,16.08V442.56A16.11,16.11,0,0,1,293.1,458.65Zm-190-125.26a4.09,4.09,0,0,0-4.09,4.08V442.56a4.09,4.09,0,0,0,4.09,4.09h190a4.09,4.09,0,0,0,4.09-4.09V337.47a4.09,4.09,0,0,0-4.09-4.08Z"/><path fill="#1d71a0" d="M321.56,507H74.68a21.41,21.41,0,0,1,0-42.81H321.56a21.41,21.41,0,0,1,0,42.81ZM74.68,476.19a9.41,9.41,0,0,0,0,18.81H321.56a9.41,9.41,0,0,0,0-18.81Z"/><path fill="#1d71a0" d="M145.21,419.81a17.68,17.68,0,0,1-12.54-5.18l-14-14a14.65,14.65,0,0,1,0-20.72,14.69,14.69,0,0,1,20.73,0l5.87,5.87L166.5,364.5a14.69,14.69,0,0,1,20.72,0h0a14.65,14.65,0,0,1,0,20.73l-29.47,29.41A17.69,17.69,0,0,1,145.21,419.81ZM129,387.6a2.65,2.65,0,0,0-1.88,4.52l14,14a5.73,5.73,0,0,0,8.11,0l29.47-29.41a2.61,2.61,0,0,0,.78-1.87A2.65,2.65,0,0,0,175,373L152.2,395.75a9.89,9.89,0,0,1-13.95,0l-7.38-7.37A2.62,2.62,0,0,0,129,387.6Z"/><path fill="#1d71a0" d="M266.39,419.81a15.45,15.45,0,0,1-11-4.53L252.1,412l-3.33,3.33a15.51,15.51,0,0,1-21.93-21.93l3.33-3.33-3.33-3.33a15.51,15.51,0,0,1,21.93-21.93l3.33,3.33,3.33-3.33a15.51,15.51,0,0,1,21.93,21.93L274,390l3.33,3.33a15.5,15.5,0,0,1-11,26.46ZM252.1,397.46a6,6,0,0,1,4.24,1.76l7.58,7.57a3.5,3.5,0,0,0,4.95-5l-7.57-7.58a6,6,0,0,1,0-8.48l7.57-7.58a3.5,3.5,0,0,0,0-5,3.51,3.51,0,0,0-4.95,0l-7.58,7.58a6,6,0,0,1-8.48,0l-7.58-7.58a3.5,3.5,0,0,0-6,2.48,3.48,3.48,0,0,0,1,2.48l7.58,7.58a6,6,0,0,1,0,8.48l-7.58,7.58a3.5,3.5,0,0,0,5,5l7.58-7.57A6,6,0,0,1,252.1,397.46Z"/></g></svg>